<svg width="143" height="36" viewBox="0 0 143 36" fill="none" xmlns="http://www.w3.org/2000/svg">
<path d="M0.672 3.618H18.038L20.394 10.648L16.366 12.016L14.96 7.874H8.652V12.548H14.846V16.766H8.652V21.744H15.986L17.316 18.02L21.306 19.426L19.026 26H0.634V21.744H3.712L3.75 7.874H0.672V3.618ZM23.6311 26V22.162H26.8231V5.29L23.2131 4.074L24.4671 0.197999L31.6491 2.63V22.162H34.8411V26H23.6311ZM36.9534 26V22.162H40.1454V5.29L36.5354 4.074L37.7894 0.197999L44.9714 2.63V22.162H48.1634V26H36.9534ZM63.4617 25.354C61.6377 26.2913 59.8137 26.76 57.9897 26.76C55.5323 26.76 53.6703 26.304 52.4037 25.392C51.137 24.4547 50.5037 23.0993 50.5037 21.326C50.5037 17.7033 52.9103 15.892 57.7237 15.892H61.7137C61.7137 14.4227 61.397 13.346 60.7637 12.662C60.1557 11.9527 59.3957 11.598 58.4837 11.598C57.9263 11.598 57.407 11.636 56.9257 11.712C56.4697 11.788 56.0137 11.902 55.5577 12.054L55.2157 13.84L51.2257 13.346L51.9477 9.09C52.9863 8.73533 54.0503 8.46933 55.1397 8.292C56.2543 8.08933 57.4323 7.988 58.6737 7.988C61.207 7.988 63.145 8.65933 64.4877 10.002C65.8557 11.3193 66.5397 13.27 66.5397 15.854V22.048L69.6177 23.036L68.2877 26.988L63.4617 25.354ZM57.8377 18.894C57.0523 18.894 56.4443 19.1093 56.0137 19.54C55.6083 19.9453 55.4057 20.5153 55.4057 21.25C55.4057 22.5927 56.3177 23.264 58.1417 23.264C59.4083 23.264 60.599 22.9347 61.7137 22.276V18.894H57.8377ZM90.7436 3.618C93.7582 3.618 96.0509 4.25133 97.6216 5.518C99.2176 6.78467 100.016 8.62133 100.016 11.028C100.016 13.5107 99.2176 15.4107 97.6216 16.728C96.0509 18.02 93.7582 18.666 90.7436 18.666H88.8436V21.744H92.4156V26H80.9016V21.744H83.9416V7.874H80.9016V3.618H90.7436ZM90.7056 14.904C93.5429 14.904 94.9616 13.65 94.9616 11.142C94.9616 8.96333 93.5429 7.874 90.7056 7.874H88.8816V14.904H90.7056ZM114.784 25.354C112.96 26.2913 111.136 26.76 109.312 26.76C106.855 26.76 104.993 26.304 103.726 25.392C102.459 24.4547 101.826 23.0993 101.826 21.326C101.826 17.7033 104.233 15.892 109.046 15.892H113.036C113.036 14.4227 112.719 13.346 112.086 12.662C111.478 11.9527 110.718 11.598 109.806 11.598C109.249 11.598 108.729 11.636 108.248 11.712C107.792 11.788 107.336 11.902 106.88 12.054L106.538 13.84L102.548 13.346L103.27 9.09C104.309 8.73533 105.373 8.46933 106.462 8.292C107.577 8.08933 108.755 7.988 109.996 7.988C112.529 7.988 114.467 8.65933 115.81 10.002C117.178 11.3193 117.862 13.27 117.862 15.854V22.048L120.94 23.036L119.61 26.988L114.784 25.354ZM109.16 18.894C108.375 18.894 107.767 19.1093 107.336 19.54C106.931 19.9453 106.728 20.5153 106.728 21.25C106.728 22.5927 107.64 23.264 109.464 23.264C110.731 23.264 111.921 22.9347 113.036 22.276V18.894H109.16ZM125.082 35.462C123.917 35.462 122.701 35.1833 121.434 34.626L122.346 30.864C122.853 31.0667 123.296 31.2187 123.676 31.32C124.081 31.4213 124.525 31.472 125.006 31.472C125.589 31.472 126.083 31.3073 126.488 30.978C126.893 30.674 127.286 30.1673 127.666 29.458C128.046 28.7487 128.489 27.7733 128.996 26.532L122.46 12.586H119.648V8.748H129.414V12.586H127.362L131.086 21.554L134.848 12.586H132.948L133.176 8.748H142.6V12.586H139.598L132.34 28.698C131.251 31.13 130.136 32.8653 128.996 33.904C127.881 34.9427 126.577 35.462 125.082 35.462Z" fill="#FF00AF"/>
</svg>
